
<svg xmlns="http://www.w3.org/2000/svg" version="1.1" xmlns:xlink="http://www.w3.org/1999/xlink" preserveAspectRatio="none" x="0px" y="0px" width="6px" height="6px" viewBox="0 0 6 6">
<defs>
<radialGradient id="Gradient_1" gradientUnits="userSpaceOnUse" cx="0" cy="0" r="5.3125" fx="0" fy="0" gradientTransform="matrix( 1, 0, 0, 1, 1.4,1.15) " spreadMethod="pad">
<stop  offset="44.31372549019608%" stop-color="#FFFFFF"/>

<stop  offset="100%" stop-color="#999999"/>
</radialGradient>

<g id="proton_0_Layer0_0_FILL">
<path fill="url(#Gradient_1)" stroke="none" d="
M 5.05 5.1
Q 5.9 4.25 5.9 2.95 5.9 1.75 5.05 0.9 4.2 0 2.95 0 1.75 0 0.85 0.9 0 1.75 0 2.95 0 4.25 0.85 5.1 1.75 5.95 2.95 5.95 4.2 5.95 5.05 5.1 Z"/>
</g>

<path id="proton_0_Layer0_0_1_STROKES" stroke="#CCCCCC" stroke-width="0.1" stroke-linejoin="miter" stroke-linecap="square" stroke-miterlimit="3" fill="none" d="
M 5.9 2.95
Q 5.9 4.25 5.05 5.1 4.2 5.95 2.95 5.95 1.75 5.95 0.85 5.1 0 4.25 0 2.95 0 1.75 0.85 0.9 1.75 0 2.95 0 4.2 0 5.05 0.9 5.9 1.75 5.9 2.95 Z"/>
</defs>

<g transform="matrix( 1, 0, 0, 1, 0.05,0.05) ">
<g transform="matrix( 1, 0, 0, 1, 0,0) ">
<use xlink:href="#proton_0_Layer0_0_FILL"/>

<use xlink:href="#proton_0_Layer0_0_1_STROKES"/>
</g>
</g>
</svg>
